<svg xmlns="http://www.w3.org/2000/svg" viewBox="0 0 32 32" width="32" height="32">
  <defs>
    <linearGradient id="shieldGradient" x1="0%" y1="0%" x2="0%" y2="100%">
      <stop offset="0%" style="stop-color:#1e40af;stop-opacity:1" />
      <stop offset="50%" style="stop-color:#3b82f6;stop-opacity:1" />
      <stop offset="100%" style="stop-color:#1d4ed8;stop-opacity:1" />
    </linearGradient>
    <linearGradient id="innerGradient" x1="0%" y1="0%" x2="0%" y2="100%">
      <stop offset="0%" style="stop-color:#ffffff;stop-opacity:0.9" />
      <stop offset="100%" style="stop-color:#f0f9ff;stop-opacity:0.8" />
    </linearGradient>
    <linearGradient id="accentGradient" x1="0%" y1="0%" x2="0%" y2="100%">
      <stop offset="0%" style="stop-color:#fbbf24;stop-opacity:1" />
      <stop offset="100%" style="stop-color:#f59e0b;stop-opacity:1" />
    </linearGradient>
  </defs>
  
  <!-- Shield Background -->
  <path d="M16 2L4 6v10c0 8 12 14 12 14s12-6 12-14V6L16 2z" fill="url(#shieldGradient)" stroke="#1e3a8a" stroke-width="1.5"/>
  
  <!-- Shield Inner Design -->
  <path d="M16 4L6 7v9c0 6 10 10 10 10s10-4 10-10V7L16 4z" fill="url(#innerGradient)" stroke="#ffffff" stroke-width="1" opacity="0.6"/>
  
  <!-- Central Mining Safety Symbol -->
  <circle cx="16" cy="16" r="4.5" fill="url(#accentGradient)" stroke="#ffffff" stroke-width="1"/>
  
  <!-- Mining Helmet/Safety Symbol -->
  <path d="M13 14h6v3c0 1-1 2-3 2s-3-1-3-2v-3z" fill="#ffffff"/>
  <path d="M14 15h4v1h-4z" fill="#1e40af"/>
  <circle cx="16" cy="16.5" r="0.8" fill="#1e40af"/>
  
  <!-- Warning/Alert Dots -->
  <circle cx="12" cy="12" r="1" fill="#fbbf24"/>
  <circle cx="20" cy="12" r="1" fill="#fbbf24"/>
  <circle cx="12" cy="20" r="1" fill="#fbbf24"/>
  <circle cx="20" cy="20" r="1" fill="#fbbf24"/>
</svg>
